<?xml version="1.0" encoding="UTF-8"?>
<svg width="32px" height="32px" viewBox="0 0 32 32" version="1.1" xmlns="http://www.w3.org/2000/svg" xmlns:xlink="http://www.w3.org/1999/xlink">
    <!-- Generator: Sketch 51.3 (57544) - http://www.bohemiancoding.com/sketch -->
    <title>add</title>
    <desc>Created with Sketch.</desc>
    <defs></defs>
    <g id="add" stroke="none" stroke-width="1" fill="none" fill-rule="evenodd">
        <path d="M15.84,31.68 C7.09180956,31.68 -5.93303184e-15,24.5881904 -7.10542736e-15,15.84 C-8.27782287e-15,7.09180956 7.09180956,-5.34683409e-15 15.84,-7.10542736e-15 C24.5881904,-8.86402063e-15 31.68,7.09180956 31.68,15.84 C31.68,20.0410292 30.0111476,24.0699952 27.0405714,27.0405714 C24.0699952,30.0111476 20.0410292,31.68 15.84,31.68 Z M17.16,24.42 L17.16,17.16 L24.42,17.16 C25.1490159,17.16 25.74,16.5690159 25.74,15.84 C25.74,15.1109841 25.1490159,14.52 24.42,14.52 L17.16,14.52 L17.16,7.26 C17.16,6.53098413 16.5690159,5.94 15.84,5.94 C15.1109841,5.94 14.52,6.53098413 14.52,7.26 L14.52,14.52 L7.26,14.52 C6.53098413,14.52 5.94,15.1109841 5.94,15.84 C5.94,16.5690159 6.53098413,17.16 7.26,17.16 L14.52,17.16 L14.52,24.42 C14.52,25.1490159 15.1109841,25.74 15.84,25.74 C16.5690159,25.74 17.16,25.1490159 17.16,24.42 Z" id="Shape" fill="#4453D6" fill-rule="nonzero"></path>
    </g>
</svg>