<?xml version="1.0" encoding="UTF-8"?>
<svg width="30px" height="30px" viewBox="0 0 30 30" version="1.1" xmlns="http://www.w3.org/2000/svg" xmlns:xlink="http://www.w3.org/1999/xlink">
    <!-- Generator: Sketch 51.3 (57544) - http://www.bohemiancoding.com/sketch -->
    <title>Shape</title>
    <desc>Created with Sketch.</desc>
    <defs></defs>
    <g id="Page-1" stroke="none" stroke-width="1" fill="none" fill-rule="evenodd">
        <g id="Create-Content-Type" transform="translate(-975.000000, -424.000000)" fill="#1E1E21" fill-rule="nonzero">
            <g id="Group-5" transform="translate(399.000000, 419.000000)">
                <path d="M591,35 C582.715729,35 576,28.2842712 576,20 C576,11.7157288 582.715729,5 591,5 C599.284271,5 606,11.7157288 606,20 C606,28.2842712 599.284271,35 591,35 Z M599.375,12.863375 C599.11273,12.6038548 598.749256,12.4733756 598.381811,12.5068422 C598.014366,12.5403087 597.680444,12.734306 597.469375,13.0369375 L589.442,24.53075 L585.7705,19.27375 C585.559431,18.9711185 585.225509,18.7771212 584.858064,18.7436547 C584.490619,18.7101881 584.127145,18.8406673 583.864875,19.1001875 C583.430041,19.5572341 583.384974,20.260099 583.757875,20.7689375 L587.898125,26.6970625 C588.250562,27.2012291 588.826955,27.501565 589.442094,27.501565 C590.057233,27.501565 590.633625,27.2012291 590.986063,26.6970625 L599.482125,14.5318125 C599.854791,14.0229981 599.809676,13.3203526 599.375,12.863375 Z" id="Shape"></path>
            </g>
        </g>
    </g>
</svg>