<?xml version="1.0" encoding="UTF-8"?>
<svg width="25px" height="25px" viewBox="0 0 25 25" version="1.1" xmlns="http://www.w3.org/2000/svg" xmlns:xlink="http://www.w3.org/1999/xlink">
    <!-- Generator: Sketch 51.3 (57544) - http://www.bohemiancoding.com/sketch -->
    <title>key</title>
    <desc>Created with Sketch.</desc>
    <defs></defs>
    <g id="Page-1" stroke="none" stroke-width="1" fill="none" fill-rule="evenodd">
        <g id="Login" transform="translate(-549.000000, -352.000000)" fill="#82858D" fill-rule="nonzero">
            <g id="key" transform="translate(549.000000, 352.000000)">
                <path d="M1.92050158,24.4205205 L0.329421712,22.8294897 C0.118483492,22.6184949 -1.08746722e-05,22.3323548 0,22.0340024 L0,20.7160845 C-1.08746722e-05,20.4177321 0.118483492,20.131592 0.329421712,19.9205972 L9.96005646,10.2899187 C10.0654705,10.1844466 10.1246941,10.0414351 10.1247111,9.8923157 L10.1247111,7.53015553 C10.0826153,3.43747044 13.3480513,0.0762242876 17.4402245,0 C21.4763515,0.0015519583 24.7480132,3.27287601 24.75,7.3090212 C24.6739286,11.4013412 21.3126713,14.6669936 17.2198787,14.6249616 L13.7330489,14.6249616 C13.5838441,14.6249338 13.4407403,14.684183 13.3352227,14.7896732 L12.5397952,15.5851043 C12.4342504,15.6906177 12.374959,15.8337475 12.3749719,15.9829886 L12.3749719,17.2044871 C12.3749848,17.3536455 12.3157589,17.4967029 12.2103173,17.6022026 L11.4147211,18.3976899 C11.3092265,18.503187 11.1661445,18.5624558 11.0169511,18.5624578 L10.3579952,18.5624578 C10.2088213,18.5624747 10.0657623,18.6217423 9.96028147,18.7272257 L9.16474154,19.5226567 C9.05924192,19.6281774 8.99995726,19.7712705 8.99991818,19.9204847 L8.99991818,20.5794436 C8.99993108,20.7286847 8.94063964,20.8718145 8.83509481,20.9773279 L8.03966739,21.772759 C7.93418656,21.8782423 7.79112752,21.9375099 7.64195367,21.9375268 L6.42057317,21.9375268 C6.27133278,21.9375139 6.12820366,21.9968056 6.0226907,22.1023509 L5.22726327,22.897782 C5.12171844,23.0032954 5.06242701,23.1464252 5.06243991,23.2956663 L5.06243991,23.9545127 C5.06245281,24.1036986 5.00320506,24.2467802 4.89772905,24.3522845 L4.6647262,24.5852321 C4.55927691,24.6907626 4.4161974,24.7500387 4.26701248,24.75 L2.715929,24.75 C2.41757956,24.7500305 2.13144442,24.6315085 1.92050158,24.4205205 Z M19.6875038,6.7498568 C20.6195458,6.7498568 21.3751151,5.99428409 21.3751151,5.0622379 C21.3751151,4.13019172 20.6195458,3.374619 19.6875038,3.374619 C18.7554619,3.374619 17.9998926,4.13019172 17.9998926,5.0622379 C17.9998926,5.99428409 18.7554619,6.7498568 19.6875038,6.7498568 Z M2.65112473,21.769665 L11.6471614,12.7735312 C11.7922782,12.632046 11.8500681,12.4234362 11.7984397,12.2274474 C11.7468112,12.0314585 11.593747,11.8783936 11.397759,11.8267649 C11.2017711,11.7751362 10.9931623,11.8329264 10.8516777,11.9780439 L1.8555848,20.9740652 C1.64065851,21.1945413 1.64291574,21.5468393 1.86064951,21.7645433 C2.07838329,21.9822473 2.43068002,21.9844547 2.65112473,21.7694962 L2.65112473,21.769665 Z" id="Shape"></path>
            </g>
        </g>
    </g>
</svg>