<?xml version="1.0" encoding="UTF-8"?>
<svg width="35px" height="34px" viewBox="0 0 35 34" version="1.1" xmlns="http://www.w3.org/2000/svg" xmlns:xlink="http://www.w3.org/1999/xlink">
    <!-- Generator: Sketch 51.3 (57544) - http://www.bohemiancoding.com/sketch -->
    <title>name</title>
    <desc>Created with Sketch.</desc>
    <defs></defs>
    <g id="name" stroke="none" stroke-width="1" fill="none" fill-rule="evenodd">
        <path d="M34.4510953,28 L20.7702152,27.9981301 C20.4806515,27.9991839 20.2410289,27.7719132 20.2251347,27.4811469 C20.2375793,26.3982976 19.9113234,25.3388972 19.2924767,24.4526703 C19.1532869,24.2819831 19.1040094,24.0544866 19.1599936,23.841043 C19.2159777,23.6275995 19.370421,23.4541439 19.5752164,23.3747053 L19.6182562,23.3586458 C21.991738,22.4721847 22.8086751,21.599308 22.9496621,19.4314435 C22.5398829,19.1668783 22.1696299,18.8450098 21.85004,18.4755195 C21.2770839,17.7283219 20.9165896,16.8387103 20.8070206,15.9016032 C20.7804582,15.9047232 20.7537522,15.9064489 20.7270113,15.906773 C20.1332033,15.906773 19.6836637,14.647314 19.6836637,13.7618427 C19.6836637,12.8763715 19.9888256,12.6068803 20.2797686,12.6068803 C20.3406916,12.6068803 20.3971301,12.6099052 20.4514905,12.614525 C20.3145098,12.0585595 20.2416405,11.4885809 20.2343224,10.9158502 C20.2343224,8.76905001 20.8332711,7.28272331 22.6621099,7.01829191 C23.674285,6.31205986 25.2047432,6.00043999 27.1594203,6.00043999 C28.4099826,6.00043999 27.3681663,6.86072203 28.5430398,7.11189886 C29.2703971,7.26737881 30.6249224,7.78584696 30.6249224,10.9158502 C30.6176527,11.4885741 30.5448385,12.058552 30.4079183,12.614525 C30.4621147,12.6099052 30.5187173,12.6068803 30.5796403,12.6068803 C30.8706926,12.6068803 31.1757452,12.8763715 31.1757452,13.7618427 C31.1757452,14.647314 30.7263696,15.906773 30.1325616,15.906773 C30.1057659,15.9064541 30.0790051,15.9047285 30.0523883,15.9016032 C29.9428969,16.8387304 29.5823945,17.7283622 29.0093688,18.4755195 C28.6931815,18.8413384 28.3271573,19.160368 27.9221611,19.4231387 C28.061398,21.5971631 28.8773507,22.4710297 31.2540591,23.3586458 C33.7293709,24.2831108 34.8548059,24.9198251 34.9990196,27.4114641 C35.0080436,27.5636547 34.9544701,27.7128855 34.8508556,27.8241798 C34.7472411,27.9354741 34.6026947,27.9990476 34.4510953,28 Z M5.46771113,19.2022659 C4.79230791,19.2022659 2.73284763,17.5158007 2.73284763,13.4812419 C2.73284763,8.75436548 5.43172608,6 8.65862219,6 C10.203026,6 10.9298364,6.07149768 11.7578753,6.82568817 C14.1214584,6.82568817 16.4078214,8.58865587 16.4078214,13.4812419 C16.4078214,17.4843418 14.3693068,19.2022659 13.6727938,19.2022659 C13.4302502,19.2022659 13.2462233,18.9888179 12.9745308,18.7108019 C12.697322,18.9880205 12.3915274,19.2347422 12.0623263,19.446788 C12.2062118,21.6034329 13.0254458,22.4743846 15.3955916,23.3587558 C17.8729815,24.2832208 18.999565,24.9199351 19.1438333,27.4115191 C19.1527035,27.5637962 19.0989715,27.7130501 18.9952222,27.8243232 C18.8914729,27.9355964 18.74682,27.9991143 18.5951434,28 L0.54962724,28 C0.397965944,27.9990667 0.253341594,27.9355342 0.149602624,27.8242721 C0.0458636538,27.71301 -0.00788459511,27.5637839 0.00093732206,27.4115191 C0.145315014,24.9201001 1.27178914,24.2832208 3.74917909,23.3587558 C6.11828576,22.4747696 6.93784791,21.6043129 7.08228029,19.4498129 C6.74964063,19.2358187 6.44087661,18.9864314 6.16132562,18.7059621 C5.88711739,18.9863429 5.70418429,19.2022659 5.46771113,19.2022659 Z" id="Shape" fill="#82858D" fill-rule="nonzero"></path>
    </g>
</svg>