<?xml version="1.0" encoding="UTF-8"?>
<svg width="44px" height="34px" viewBox="0 0 44 34" version="1.1" xmlns="http://www.w3.org/2000/svg" xmlns:xlink="http://www.w3.org/1999/xlink">
    <!-- Generator: Sketch 51.3 (57544) - http://www.bohemiancoding.com/sketch -->
    <title>name</title>
    <desc>Created with Sketch.</desc>
    <defs></defs>
    <g id="name" stroke="none" stroke-width="1" fill="none" fill-rule="evenodd">
        <path d="M43.3099484,30.6571429 L26.1111277,30.6547921 C25.7471048,30.6561169 25.445865,30.3704052 25.4258837,30.0048703 C25.4415283,28.6435741 25.031378,27.3117565 24.2533993,26.1976426 C24.0784178,25.9830644 24.016469,25.6970689 24.0868491,25.4287398 C24.1572292,25.1604108 24.3513864,24.9423523 24.6088434,24.8424867 L24.6629507,24.8222976 C27.6467563,23.7078893 28.673763,22.6105587 28.8510038,19.8852432 C28.3358528,19.552647 27.8703919,19.1480124 27.4686217,18.6835103 C26.748334,17.7441762 26.2951412,16.6258073 26.1573973,15.4477297 C26.1240046,15.4516521 26.0904314,15.4538214 26.0568142,15.454229 C25.3103127,15.454229 24.7451772,13.870909 24.7451772,12.7577452 C24.7451772,11.6445813 25.1288094,11.3057923 25.4945662,11.3057923 C25.5711551,11.3057923 25.6421064,11.3095951 25.7104452,11.3154029 C25.5382408,10.6164748 25.4466338,9.89993024 25.4374339,9.17992601 C25.4374339,6.48109144 26.1903979,4.61256645 28.4895095,4.2801384 C29.7619583,3.39230382 31.6859629,3.00055312 34.1432712,3.00055312 C35.7154068,3.00055312 34.4056948,4.08205055 35.8826786,4.39781571 C36.7970707,4.59327622 38.4999024,5.24506475 38.4999024,9.17992601 C38.4907633,9.89992173 38.3992256,10.6164654 38.2270973,11.3154029 C38.2952299,11.3095951 38.3663874,11.3057923 38.4429764,11.3057923 C38.8088707,11.3057923 39.1923653,11.6445813 39.1923653,12.7577452 C39.1923653,13.870909 38.6274361,15.454229 37.8809346,15.454229 C37.8472486,15.453828 37.8136064,15.4516587 37.7801453,15.4477297 C37.642499,16.6258326 37.1892959,17.7442267 36.4689208,18.6835103 C36.0714281,19.1433968 35.6112835,19.5444626 35.1021453,19.874803 C35.2771861,22.6078622 36.3029552,23.7064373 39.2908172,24.8222976 C42.4026377,25.9844821 43.8174703,26.784923 43.9987675,29.9172692 C44.010112,30.1085944 43.9427624,30.2961989 43.8125042,30.4361117 C43.682246,30.5760246 43.5005305,30.6559456 43.3099484,30.6571429 Z M6.87369399,19.5971343 C6.02461566,19.5971343 3.43557988,17.4770066 3.43557988,12.4049898 C3.43557988,6.46263089 6.82845565,3 10.885125,3 C12.8266612,3 13.7403658,3.08988279 14.7813289,4.03800798 C17.7526906,4.03800798 20.6269754,6.25431023 20.6269754,12.4049898 C20.6269754,17.4374582 18.0642714,19.5971343 17.1886551,19.5971343 C16.8837431,19.5971343 16.6523951,19.3287996 16.3108387,18.9792938 C15.9623477,19.3277972 15.5779201,19.6379616 15.1640673,19.9045335 C15.3449519,22.6157442 16.3748461,23.7106549 19.3544579,24.8224359 C22.468891,25.9846204 23.8851674,26.7850613 24.0665333,29.9173383 C24.0776843,30.1087724 24.0101356,30.2964058 23.8797079,30.4362921 C23.7492802,30.5761783 23.5674309,30.6560294 23.3767517,30.6571429 L0.690959959,30.6571429 C0.500300044,30.6559695 0.318486576,30.5761002 0.18807187,30.4362278 C0.0576571648,30.2963555 -0.00991206243,30.1087569 0.00117834773,29.9173383 C0.182681732,26.7852687 1.59882064,25.9846204 4.71325371,24.8224359 C7.69155924,23.7111389 8.72186595,22.6168505 8.90343809,19.9083362 C8.4852625,19.6393149 8.09710203,19.3257995 7.7456665,18.9732094 C7.40094757,19.3256883 7.17097453,19.5971343 6.87369399,19.5971343 Z" id="Shape" fill="#82858D" fill-rule="nonzero"></path>
    </g>
</svg>