<?xml version="1.0" encoding="UTF-8"?>
<svg width="180px" height="64px" viewBox="0 0 180 64" version="1.1" xmlns="http://www.w3.org/2000/svg" xmlns:xlink="http://www.w3.org/1999/xlink">
    <title>pigeon</title>
    <defs></defs>
    <g id="Page-1" stroke="none" stroke-width="1" fill="none" fill-rule="evenodd">
        <g id="Login" transform="translate(-664.000000, -165.000000)" fill="#1E1E21">
            <g id="pigeon" transform="translate(664.000000, 165.000000)">
                <path d="M0,0 L180,0 L180,64 L0,64 L0,0 Z M23.5,53.296 L30.276,53.296 L30.276,41.02 L30.452,41.02 C31.552,42.34 33.312,43.616 36.568,43.616 C42.376,43.616 45.896,38.6 45.896,31.736 C45.896,24.828 42.288,19.812 36.568,19.812 C33.312,19.812 31.552,21.088 30.452,22.408 L30.276,22.408 L29.572,20.208 L23.5,20.208 L23.5,53.296 Z M34.5,37.676 C31.068,37.676 29.968,34.948 29.968,31.736 C29.968,28.524 31.156,25.752 34.5,25.752 C37.844,25.752 39.032,28.524 39.032,31.736 C39.032,34.948 37.932,37.676 34.5,37.676 Z M52.628,17.876 C55.224,17.876 56.72,16.38 56.72,13.916 C56.72,11.496 55.224,10 52.628,10 C49.944,10 48.536,11.496 48.536,13.916 C48.536,16.38 49.944,17.876 52.628,17.876 Z M49.196,43.22 L55.972,43.22 L55.972,20.208 L49.196,20.208 L49.196,43.22 Z M69.964,53.692 C76.388,53.692 81.228,50.084 81.228,44.32 L81.228,20.208 L75.156,20.208 L74.452,22.408 L74.276,22.408 C73.176,21.088 71.416,19.812 68.16,19.812 C62.352,19.812 58.832,24.828 58.832,31.736 C58.832,38.6 62.352,43.616 68.16,43.616 C71.416,43.616 73.176,42.34 74.276,41.02 L74.452,41.02 L74.452,44.232 C74.452,46.3 72.956,47.884 69.964,47.884 C67.852,47.884 66.312,46.74 66.136,45.2 L59.492,45.2 C59.624,50.392 63.76,53.692 69.964,53.692 Z M70.228,37.676 C66.796,37.676 65.696,34.948 65.696,31.736 C65.696,28.524 66.884,25.752 70.228,25.752 C73.572,25.752 74.76,28.524 74.76,31.736 C74.76,34.948 73.66,37.676 70.228,37.676 Z M95.484,43.616 C101.776,43.616 105.428,39.964 106.044,35.828 L99.488,35.828 C99.092,36.884 97.992,38.116 95.484,38.116 C92.404,38.116 91.04,36.224 90.996,33.54 L106.352,33.54 L106.352,31.032 C106.352,24.784 102.392,19.812 95.352,19.812 C87.872,19.812 84.088,25.224 84.088,31.736 C84.088,38.336 88.224,43.616 95.484,43.616 Z M91.04,29.272 C91.172,27.072 92.448,25.356 95.352,25.356 C98.036,25.356 99.312,27.072 99.444,29.272 L91.04,29.272 Z M120.036,43.616 C127.516,43.616 131.52,38.6 131.52,31.736 C131.52,24.828 127.428,19.812 120.036,19.812 C112.644,19.812 108.552,24.828 108.552,31.736 C108.552,38.644 112.556,43.616 120.036,43.616 Z M120.036,37.676 C117.264,37.676 115.46,35.916 115.46,31.736 C115.46,27.6 117.22,25.752 120.036,25.752 C122.852,25.752 124.612,27.556 124.612,31.736 C124.612,35.916 122.852,37.676 120.036,37.676 Z M134.82,43.22 L141.596,43.22 L141.596,30.46 C141.596,27.688 143.356,25.972 145.776,25.972 C148.46,25.972 149.648,27.556 149.648,30.196 L149.648,43.22 L156.424,43.22 L156.424,28.084 C156.424,22.98 152.992,19.812 147.888,19.812 C144.896,19.812 142.872,20.912 141.596,22.408 L141.42,22.408 L140.892,20.208 L134.82,20.208 L134.82,43.22 Z" id="Combined-Shape"></path>
            </g>
        </g>
    </g>
</svg>