<?xml version="1.0" encoding="UTF-8"?>
<svg width="48px" height="48px" viewBox="0 0 48 48" version="1.1" xmlns="http://www.w3.org/2000/svg" xmlns:xlink="http://www.w3.org/1999/xlink">
    <!-- Generator: Sketch 51.3 (57544) - http://www.bohemiancoding.com/sketch -->
    <title>sign-in</title>
    <desc>Created with Sketch.</desc>
    <defs></defs>
    <g id="Page-1" stroke="none" stroke-width="1" fill="none" fill-rule="evenodd">
        <g id="Login" transform="translate(-934.000000, -308.000000)" fill="#4453D6">
            <path d="M958,356 C944.745166,356 934,345.254834 934,332 C934,318.745166 944.745166,308 958,308 C971.254834,308 982,318.745166 982,332 C982,345.254834 971.254834,356 958,356 Z M961.07216,340.932659 L971.287347,332.576296 C971.546044,332.364817 971.695677,332.051169 971.695677,331.720386 C971.695677,331.389602 971.546044,331.075955 971.287347,330.864475 L961.07216,322.508502 C960.734014,322.231601 960.263556,322.171807 959.864908,322.355063 C959.46626,322.538319 959.21126,322.931601 959.210547,323.364273 L959.210547,327.829718 L947.883333,327.829718 C947.257411,327.829718 946.75,328.3286 946.75,328.944003 L946.75,334.515432 C946.75,335.130835 947.257411,335.629718 947.883333,335.629718 L959.210547,335.629718 L959.210547,340.076776 C959.211263,340.509448 959.466252,340.902732 959.864889,341.086006 C960.263527,341.269281 960.733985,341.209524 961.07216,340.932659 Z" id="sign-in"></path>
        </g>
    </g>
</svg>