<?xml version="1.0" encoding="UTF-8"?>
<svg width="26px" height="25px" viewBox="0 0 26 25" version="1.1" xmlns="http://www.w3.org/2000/svg" xmlns:xlink="http://www.w3.org/1999/xlink">
    <!-- Generator: Sketch 51.3 (57544) - http://www.bohemiancoding.com/sketch -->
    <title>username@3x</title>
    <desc>Created with Sketch.</desc>
    <defs></defs>
    <g id="Page-1" stroke="none" stroke-width="1" fill="none" fill-rule="evenodd">
        <g id="Login" transform="translate(-548.000000, -284.000000)" fill="#82858D" fill-rule="nonzero">
            <g id="username" transform="translate(548.000000, 284.000000)">
                <path d="M12.9423375,22.516875 C14.594438,22.5190451 16.2216742,22.1145204 17.6804437,21.339 C18.2233379,21.0365102 18.908657,21.2313965 19.2111468,21.7742907 C19.5136366,22.3171848 19.3187504,23.0025039 18.7758563,23.3049938 C13.8682935,25.9320946 7.81081498,24.9609398 3.97047516,20.9313466 C0.130135348,16.9017534 -0.548728975,10.8045958 2.31122948,6.02898392 C5.17118794,1.25337202 10.8667074,-1.02637465 16.2319288,0.456942955 C21.5971502,1.94026056 25.3127693,6.8218957 25.3134562,12.3883875 C25.3134562,15.8068125 23.2997062,18.578025 20.8148625,18.578025 C19.1922526,18.5776517 17.6958536,17.7026023 16.8998625,16.28865 C15.9069219,18.0119036 14.0873734,19.0927981 12.0990937,19.140525 C8.8381125,19.140525 6.19475625,16.117425 6.19475625,12.3882187 C6.19475625,8.6590125 8.83783125,5.63625 12.0988125,5.63625 C13.7352486,5.65826806 15.2785607,6.40134349 16.3162687,7.666875 L16.3162687,7.38405 C16.303644,6.81887824 16.6979116,6.32592524 17.2520437,6.21405 C17.5787971,6.15875615 17.9133137,6.25025417 18.1664354,6.46415727 C18.4195571,6.67806038 18.5655627,6.99263246 18.5655375,7.32403125 L18.5655375,14.07645 C18.5653286,14.6732066 18.8021966,15.2456029 19.2240301,15.6677107 C19.6458636,16.0898185 20.2181059,16.3270585 20.8148625,16.3272375 C22.0570313,16.3272375 23.0641312,14.5637438 23.0641312,12.3883875 C23.0613355,6.79782179 18.5273551,2.26786198 12.9367891,2.27002589 C7.34622311,2.2721898 2.81575087,6.80565814 2.8172829,12.3962243 C2.81881492,17.9867905 7.35177117,22.5177751 12.9423375,22.516875 Z M12.3798375,7.8865875 C10.2059437,7.8865875 8.44363125,9.902025 8.44363125,12.3881625 C8.44363125,14.8743 10.2059437,16.8896812 12.3798375,16.8896812 C14.5537312,16.8896812 16.3161562,14.8743 16.3161562,12.3881625 C16.3161562,9.902025 14.5539562,7.8868125 12.37995,7.8868125 L12.3798375,7.8865875 Z" id="Shape"></path>
            </g>
        </g>
    </g>
</svg>